<svg width="51" height="38" viewBox="0 0 51 38" fill="none" xmlns="http://www.w3.org/2000/svg">
<path d="M42.375 3.65002C39.125 2.17502 35.65 1.1 32.05 0.5C31.6 1.275 31.1 2.32499 30.75 3.14999C26.9 2.59999 23.1 2.59999 19.3 3.14999C18.95 2.32499 18.425 1.275 18 0.5C14.375 1.1 10.9 2.17502 7.67503 3.65002C1.12503 13.2 -0.649975 22.525 0.250025 31.725C4.60003 34.85 8.80004 36.75 12.925 38C13.925 36.65 14.85 35.2 15.625 33.675C14.125 33.125 12.7 32.45 11.35 31.65C11.7 31.4 12.05 31.125 12.375 30.85C20.6 34.575 29.55 34.575 37.675 30.85C38.025 31.125 38.35 31.4 38.7 31.65C37.35 32.45 35.925 33.125 34.425 33.675C35.2 35.2 36.125 36.65 37.125 38C41.25 36.75 45.475 34.85 49.8 31.725C50.9 21.075 48.075 11.825 42.425 3.65002H42.375ZM16.7 25.925C14.225 25.925 12.2 23.675 12.2 20.925C12.2 18.175 14.175 15.925 16.7 15.925C19.225 15.925 21.25 18.175 21.2 20.925C21.2 23.675 19.2 25.925 16.7 25.925ZM33.3 25.925C30.825 25.925 28.8 23.675 28.8 20.925C28.8 18.175 30.775 15.925 33.3 15.925C35.825 15.925 37.85 18.175 37.8 20.925C37.8 23.675 35.825 25.925 33.3 25.925Z" fill="#A17948"/>
</svg>
