<svg width="50" height="50" viewBox="0 0 50 50" fill="none" xmlns="http://www.w3.org/2000/svg">
<path d="M24.9635 0.730469C18.4533 0.730469 12.2097 3.31664 7.60633 7.92005C3.00292 12.5235 0.416748 18.767 0.416748 25.2772C0.416748 31.7874 3.00292 38.031 7.60633 42.6344C12.2097 47.2378 18.4533 49.824 24.9635 49.824C31.4737 49.824 37.7173 47.2378 42.3207 42.6344C46.9241 38.031 49.5103 31.7874 49.5103 25.2772C49.5103 18.767 46.9241 12.5235 42.3207 7.92005C37.7173 3.31664 31.4737 0.730469 24.9635 0.730469ZM12.5942 27.6744C11.6929 26.7731 11.6929 25.3156 12.5942 24.4238C13.4956 23.5321 14.953 23.5225 15.8448 24.4238L22.6527 31.2317L22.6623 13.7709C22.6623 12.4957 23.6882 11.4697 24.9635 11.4697C26.2388 11.4697 27.2648 12.4957 27.2648 13.7709V31.2317L34.0727 24.4238C34.974 23.5225 36.4314 23.5225 37.3232 24.4238C38.2149 25.3252 38.2245 26.7826 37.3232 27.6744L26.5936 38.4136C25.6922 39.3149 24.2348 39.3149 23.343 38.4136L12.5942 27.6744Z" fill="white"/>
</svg>
