<svg width="60" height="60" viewBox="0 0 60 60" fill="none" xmlns="http://www.w3.org/2000/svg">
<path d="M10.6 28.65C22.675 23.35 30.725 19.875 34.775 18.175C46.275 13.35 48.675 12.525 50.225 12.5C50.575 12.5 51.325 12.575 51.825 12.975C52.25 13.325 52.35 13.775 52.425 14.1C52.475 14.425 52.55 15.175 52.5 15.75C51.875 22.35 49.175 38.325 47.8 45.7C47.225 48.825 46.075 49.875 44.975 49.975C42.575 50.2 40.75 48.375 38.4 46.85C34.75 44.45 32.7 42.95 29.15 40.6C25.05 37.9 27.7 36.4 30.05 33.975C30.65 33.35 41.275 23.65 41.475 22.75C41.5 22.65 41.525 22.225 41.275 22.025C41.025 21.8 40.675 21.875 40.425 21.95C40.05 22.025 34.225 25.9 22.95 33.575C21.3 34.725 19.8 35.275 18.45 35.25C16.975 35.225 14.125 34.4 12 33.725C9.39996 32.875 7.35001 32.425 7.52501 30.975C7.62501 30.225 8.64997 29.45 10.6 28.675V28.65Z" fill="#A17948"/>
</svg>
