<svg width="59" height="58" viewBox="0 0 59 58" fill="none" xmlns="http://www.w3.org/2000/svg">
<path d="M56.2503 23.4659C56.3699 20.0068 55.6134 16.5736 54.0512 13.4851C52.9912 12.2178 51.5202 11.3625 49.8945 11.0684C43.1702 10.4583 36.418 10.2082 29.667 10.3193C22.9406 10.2031 16.2127 10.4452 9.51202 11.0443C8.18725 11.2852 6.96127 11.9066 5.98368 12.8326C3.80868 14.8384 3.56702 18.2701 3.32535 21.1701C2.97472 26.3842 2.97472 31.616 3.32535 36.8301C3.39526 38.4623 3.63829 40.0825 4.05035 41.6634C4.34174 42.884 4.93128 44.0133 5.76618 44.9501C6.75041 45.9251 8.00494 46.5818 9.36702 46.8351C14.5771 47.4782 19.8269 47.7447 25.0753 47.6326C33.5337 47.7534 40.9528 47.6326 49.7253 46.9559C51.1209 46.7182 52.4107 46.0606 53.4228 45.0709C54.0994 44.394 54.6048 43.5656 54.897 42.6543C55.7613 40.0022 56.1858 37.2267 56.1537 34.4376C56.2503 33.0842 56.2503 24.9159 56.2503 23.4659ZM24.2053 35.8876V20.9284L38.512 28.4443C34.5003 30.6676 29.2078 33.1809 24.2053 35.8876Z" fill="#A17948"/>
</svg>
